HIERARCHY
ROOT Hips
{
	OFFSET 0.000000 0.000000 0.000000
	CHANNELS 6 Xposition Yposition Zposition Xrotation Yrotation Zrotation
	JOINT LeftUpLeg_virtual
	{
		OFFSET 0.000000 0.000000 0.000000
		CHANNELS 3 Xrotation Yrotation Zrotation
		JOINT LeftUpLeg
		{
			OFFSET 15.427100 -6.655098 0.678600
			CHANNELS 3 Xrotation Yrotation Zrotation
			JOINT LeftLeg
			{
				OFFSET 4.081073 -39.591068 13.024000
				CHANNELS 3 Xrotation Yrotation Zrotation
				JOINT LeftFoot
				{
					OFFSET -4.081074 -37.707932 -15.979700
					CHANNELS 3 Xrotation Yrotation Zrotation
					JOINT LeftToeBase
					{
						OFFSET 5.346399 -15.068900 20.645000
						CHANNELS 3 Xrotation Yrotation Zrotation
						JOINT LeftToe_End
						{
							OFFSET 2.754700 0.931300 11.300900
							CHANNELS 3 Xrotation Yrotation Zrotation
							End Site
							{
								OFFSET 0 0 0
							}
						}
					}
				}
			}
		}
	}
	JOINT RightUpLeg_virtual
	{
		OFFSET 0.000000 0.000000 0.000000
		CHANNELS 3 Xrotation Yrotation Zrotation
		JOINT RightUpLeg
		{
			OFFSET -15.569500 -6.655098 0.678600
			CHANNELS 3 Xrotation Yrotation Zrotation
			JOINT RightLeg
			{
				OFFSET -4.081825 -39.591045 13.023800
				CHANNELS 3 Xrotation Yrotation Zrotation
				JOINT RightFoot
				{
					OFFSET 4.081824 -37.707954 -15.979600
					CHANNELS 3 Xrotation Yrotation Zrotation
					JOINT RightToeBase
					{
						OFFSET -5.346400 -15.068900 20.645000
						CHANNELS 3 Xrotation Yrotation Zrotation
						JOINT RightToe_End
						{
							OFFSET -2.754700 0.931300 11.300900
							CHANNELS 3 Xrotation Yrotation Zrotation
							End Site
							{
								OFFSET 0 0 0
							}
						}
					}
				}
			}
		}
	}
	JOINT Spine_virtual
	{
		OFFSET 0.000000 0.000000 0.000000
		CHANNELS 3 Xrotation Yrotation Zrotation
		JOINT Spine
		{
			OFFSET -0.279200 12.230698 -2.892100
			CHANNELS 3 Xrotation Yrotation Zrotation
			JOINT Spine1
			{
				OFFSET -0.232667 10.192268 -1.242267
				CHANNELS 3 Xrotation Yrotation Zrotation
				JOINT Spine1_split
				{
					OFFSET -0.232667 10.192268 -1.242267
					CHANNELS 3 Xrotation Yrotation Zrotation
					JOINT Spine2
					{
						OFFSET -0.232667 10.192268 -1.242267
						CHANNELS 3 Xrotation Yrotation Zrotation
						JOINT Neck_virtual
						{
							OFFSET 0.000000 0.000000 0.000000
							CHANNELS 3 Xrotation Yrotation Zrotation
							JOINT Neck
							{
								OFFSET -0.418800 17.814194 8.416900
								CHANNELS 3 Xrotation Yrotation Zrotation
								JOINT Head
								{
									OFFSET 0.000000 7.031097 3.806800
									CHANNELS 3 Xrotation Yrotation Zrotation
									JOINT HeadTop_End
									{
										OFFSET 0.000000 24.646606 12.978600
										CHANNELS 3 Xrotation Yrotation Zrotation
										End Site
										{
											OFFSET 0 0 0
										}
									}
								}
							}
						}
						JOINT LeftShoulder_virtual
						{
							OFFSET 0.000000 0.000000 0.000000
							CHANNELS 3 Xrotation Yrotation Zrotation
							JOINT LeftShoulder
							{
								OFFSET 8.476499 7.247704 -3.868750
								CHANNELS 3 Xrotation Yrotation Zrotation
								JOINT LeftShoulder_split
								{
									OFFSET 8.476499 7.247704 -3.868750
									CHANNELS 3 Xrotation Yrotation Zrotation
									JOINT LeftArm
									{
										OFFSET 9.308998 -2.777710 0.208600
										CHANNELS 3 Xrotation Yrotation Zrotation
										JOINT LeftForeArm
										{
											OFFSET 29.972298 0.000000 0.000000
											CHANNELS 3 Xrotation Yrotation Zrotation
											JOINT LeftHand
											{
												OFFSET 26.026505 0.000000 0.000000
												CHANNELS 3 Xrotation Yrotation Zrotation
												End Site
												{
													OFFSET 0 0 0
												}
											}
										}
									}
								}
							}
						}
						JOINT RightShoulder_virtual
						{
							OFFSET 0.000000 0.000000 0.000000
							CHANNELS 3 Xrotation Yrotation Zrotation
							JOINT RightShoulder
							{
								OFFSET -7.570500 7.247704 -3.868750
								CHANNELS 3 Xrotation Yrotation Zrotation
								JOINT RightShoulder_split
								{
									OFFSET -7.570500 7.247704 -3.868750
									CHANNELS 3 Xrotation Yrotation Zrotation
									JOINT RightArm
									{
										OFFSET -9.308998 -2.777710 0.208500
										CHANNELS 3 Xrotation Yrotation Zrotation
										JOINT RightForeArm
										{
											OFFSET -29.972300 0.000000 0.000000
											CHANNELS 3 Xrotation Yrotation Zrotation
											JOINT RightHand
											{
												OFFSET -26.026505 0.000000 0.000000
												CHANNELS 3 Xrotation Yrotation Zrotation
												End Site
												{
													OFFSET 0 0 0
												}
											}
										}
									}
								}
							}
						}
					}
				}
			}
		}
	}
}
MOTION
Frames: 4
Frame Time: 0.03333333
7.357089 70.072609 141.734512 0.000000 0.000000 0.000000 6.197443 -28.189512 1.034810 15.439726 32.501230 14.994185 38.652047 20.587338 -3.765160 -34.012495 2.527212 -39.481898 -15.252238 -2.559262 -1.077469 0.000000 0.000000 0.000000 8.467708 -22.520730 1.127443 -57.672273 -4.864890 -6.779919 49.067239 5.600000 -2.912540 2.847537 7.428541 7.603690 -4.083239 2.722824 2.397912 0.000000 0.000000 0.000000 6.349205 -24.741385 2.617734 2.867405 -2.698890 -0.149040 2.935330 -6.631132 0.870046 2.390388 -4.405929 0.570406 0.000000 0.000000 0.000000 3.382743 -6.189231 0.543431 12.715126 1.849377 11.215145 -1.520437 4.553924 -15.808700 0.000000 0.000000 0.000000 4.396210 -7.328041 0.182994 -2.928362 -15.283834 -17.557049 -6.259187 8.517277 -0.097558 -44.835179 -9.586095 -24.695066 -20.215879 -71.221968 9.251260 0.000000 0.000000 0.000000 3.405501 -6.111733 1.696994 -0.352172 -1.143802 -1.109331 -5.008087 -1.187826 -3.505805 -28.207344 42.512699 6.471563 47.520788 30.420563 -20.159950 0.000000 0.000000 0.000000 
6.717889 69.810333 146.653244 0.000000 0.000000 0.000000 9.569020 -31.708074 1.781380 20.689444 32.936374 11.400053 32.447118 23.472249 -1.981709 -33.189306 1.247691 -41.122670 -20.699300 -1.710914 -0.240149 0.000000 0.000000 0.000000 11.754606 -27.287222 1.701087 -57.942284 -5.641016 -1.625365 48.601621 4.996808 -2.562888 -0.354986 7.593018 6.294015 -4.278357 1.930559 2.612159 0.000000 0.000000 0.000000 9.324719 -29.411519 1.973777 2.893709 -5.489302 0.160011 3.281485 -10.164271 2.021521 2.174544 -2.769012 0.543538 0.000000 0.000000 0.000000 3.511913 -9.586966 2.001902 9.515151 4.914126 13.125582 1.118887 11.033590 -19.983730 0.000000 0.000000 0.000000 4.552405 -10.785611 1.746435 -4.772210 -20.324609 -18.179346 -6.812857 9.388407 0.259538 -42.082124 -18.090779 -29.333794 -15.125433 -55.258952 10.249920 0.000000 0.000000 0.000000 3.447897 -9.576497 3.136162 -0.081599 -3.481942 5.874193 -4.163519 -1.239372 -3.706793 -18.872834 31.977341 -1.022421 37.969513 23.559187 -8.946279 0.000000 0.000000 0.000000 
5.800067 69.948044 151.389832 0.000000 0.000000 0.000000 13.034656 -34.135537 2.299191 22.721480 32.475248 11.192855 28.332390 26.096872 0.115226 -27.358476 -1.475310 -40.156673 -24.421014 0.257547 -2.102411 0.000000 0.000000 0.000000 14.726166 -30.564550 1.992991 -57.297350 -6.046830 2.365800 48.794738 4.489546 -2.172315 -4.634823 7.776451 4.524176 -2.432584 1.514041 2.487470 0.000000 0.000000 0.000000 11.862766 -32.484089 1.194451 2.885153 -7.608496 0.454459 3.824935 -12.696204 3.053599 1.365270 -1.493217 0.510185 0.000000 0.000000 0.000000 4.125648 -11.983709 3.364959 5.821920 7.476286 14.959695 3.624355 16.061077 -22.931897 0.000000 0.000000 0.000000 4.866446 -13.135892 3.138747 -5.857852 -23.988809 -17.109649 -7.054325 9.043664 0.351656 -40.312371 -26.883946 -34.675801 -12.496730 -40.120029 8.482233 0.000000 0.000000 0.000000 3.584313 -12.081628 4.285353 0.349114 -5.305709 10.505019 -3.058306 -0.884953 -3.033778 -16.046495 23.304291 -2.468619 31.163257 22.805590 -3.226840 0.000000 0.000000 0.000000 
4.736545 70.443481 155.973755 0.000000 0.000000 0.000000 15.809550 -36.534296 2.390910 20.087332 31.734503 15.516052 29.252208 28.132528 1.491982 -15.225289 -6.032542 -35.752564 -24.992907 3.525567 -7.215142 0.000000 0.000000 0.000000 16.899939 -33.158359 1.830936 -55.649977 -6.028082 5.194974 49.528645 4.446279 -1.761800 -8.730360 8.332179 3.324012 -0.529570 1.416480 1.911123 0.000000 0.000000 0.000000 13.441352 -34.971525 0.239174 2.864731 -8.892368 0.824255 4.350624 -14.146129 3.747493 0.659089 -0.903163 0.432101 0.000000 0.000000 0.000000 4.917373 -13.303055 4.306669 2.089481 9.562449 16.679489 5.543626 19.823828 -24.599941 0.000000 0.000000 0.000000 5.095547 -14.371480 4.082873 -6.144554 -26.262274 -14.717780 -6.691690 7.866702 0.017358 -41.041685 -34.447660 -41.088673 -10.804255 -28.724384 5.780081 0.000000 0.000000 0.000000 3.679440 -13.529118 4.957137 0.722487 -6.194551 12.829881 -1.588236 -0.276548 -1.889978 -16.536586 16.971550 -1.225430 24.757457 26.230590 -0.330925 0.000000 0.000000 0.000000 
